<svg xmlns="http://www.w3.org/2000/svg" fill="none" viewBox="0 0 38 38"><rect width="36" height="36" x="1" y="1" stroke="#1565D8" stroke-width=".75" opacity=".2" rx="12"/><path fill="#1565D8" fill-rule="evenodd" d="M19.663 20.618c.522-1.135.04-2.07-1.29-2.65l-2.203-.91a2.097 2.097 0 0 0-2.13.317l-2.026 1.66-.059.59-.095 4.835v.84h2.452l5 1.42c.632.18 1.31.054 1.834-.34 3.295-2.477 5.497-4.15 5.83-4.46.808-.75 1.127-1.586.55-2.41-.465-.666-1.25-.737-2.223-.296l-4.732 2.407-1.331-.424c.172-.148.313-.34.423-.579z" clip-rule="evenodd"/><path fill="#1565D8" fill-rule="evenodd" d="M24.21 11.86H23.2v-.21a.63.63 0 1 0-1.26 0v.21h-.198a1.47 1.47 0 0 0-1.47 1.472v.421a1.47 1.47 0 0 0 1.47 1.472h1.668a.21.21 0 0 1 .21.21v.42a.21.21 0 0 1-.21.21h-1.928a.63.63 0 0 0-1.21.226l-.012.386a.63.63 0 0 0 .63.65h1.05v.203a.63.63 0 1 0 1.26 0v-.204h.21a1.47 1.47 0 0 0 1.47-1.47v-.42a1.47 1.47 0 0 0-1.47-1.472h-1.668a.21.21 0 0 1-.21-.21v-.422a.21.21 0 0 1 .21-.21h1.921a.63.63 0 0 0 1.178-.312v-.319a.63.63 0 0 0-.63-.63zm-12.77 6.09h.21v7.98h-.21a.63.63 0 1 0 0 1.26h.84a.63.63 0 0 0 .63-.63v-9.24a.63.63 0 0 0-.63-.63h-.84a.63.63 0 1 0 0 1.26z" clip-rule="evenodd" opacity=".3"/></svg>