<svg xmlns="http://www.w3.org/2000/svg" fill="none" viewBox="0 0 40 41"><g fill="#5A7184" clip-path="url(#clip0)"><rect width="40" height="40" y=".404" opacity=".1" rx="20"/><path d="M20.333 17.144c-2 0-3.593 1.625-3.593 3.594 0 2 1.593 3.593 3.593 3.593a3.594 3.594 0 0 0 3.594-3.593c0-1.97-1.625-3.594-3.594-3.594zm0 5.937a2.34 2.34 0 0 1-2.343-2.343c0-1.282 1.03-2.313 2.343-2.313a2.307 2.307 0 0 1 2.313 2.313c0 1.312-1.032 2.343-2.313 2.343zm4.563-6.062a.84.84 0 0 0-.844-.844.84.84 0 0 0-.844.844.84.84 0 0 0 .844.844.84.84 0 0 0 .844-.844zm2.375.844c-.063-1.125-.313-2.125-1.125-2.938-.813-.813-1.813-1.063-2.938-1.125-1.156-.063-4.625-.063-5.781 0-1.125.063-2.094.313-2.938 1.125-.812.813-1.062 1.813-1.125 2.938-.062 1.156-.062 4.625 0 5.78.063 1.126.313 2.095 1.125 2.938.844.813 1.813 1.063 2.938 1.125 1.156.063 4.625.063 5.781 0 1.125-.062 2.125-.312 2.938-1.125.812-.843 1.062-1.812 1.125-2.937.062-1.156.062-4.625 0-5.781zm-1.5 7c-.219.625-.719 1.093-1.313 1.343-.937.375-3.125.282-4.125.282-1.031 0-3.218.093-4.125-.282a2.37 2.37 0 0 1-1.343-1.343c-.376-.907-.282-3.094-.282-4.125 0-1-.094-3.188.281-4.125a2.41 2.41 0 0 1 1.344-1.313c.907-.375 3.094-.281 4.125-.281 1 0 3.188-.094 4.125.281.594.219 1.063.719 1.313 1.313.375.937.281 3.125.281 4.125 0 1.03.094 3.218-.281 4.125z"/></g><defs><clipPath id="clip0"><path fill="#fff" d="M0 0h40v40.06H0z" transform="translate(0 .404)"/></clipPath></defs></svg>