<svg xmlns="http://www.w3.org/2000/svg" fill="none" viewBox="0 0 42 41"><g fill="#5A7184" clip-path="url(#clip0)"><rect width="42" height="40" y=".404" opacity=".1" rx="20"/><path d="M27.677 17.488a6.948 6.948 0 0 0 1.625-1.688 6.15 6.15 0 0 1-1.875.5 3.206 3.206 0 0 0 1.438-1.813 6.928 6.928 0 0 1-2.063.813 3.281 3.281 0 0 0-2.406-1.031 3.28 3.28 0 0 0-3.282 3.281c0 .25.032.5.094.75a9.52 9.52 0 0 1-6.781-3.438 3.193 3.193 0 0 0-.438 1.657c0 1.125.563 2.125 1.47 2.719-.532-.032-1.063-.157-1.5-.407v.032a3.285 3.285 0 0 0 2.624 3.218c-.25.063-.562.125-.843.125-.22 0-.407-.031-.626-.062a3.265 3.265 0 0 0 3.063 2.281 6.597 6.597 0 0 1-4.063 1.406c-.28 0-.53-.031-.78-.062 1.437.937 3.155 1.469 5.03 1.469 6.032 0 9.313-4.97 9.313-9.313v-.438z"/></g><defs><clipPath id="clip0"><path fill="#fff" d="M0 0h42v40.06H0z" transform="translate(0 .404)"/></clipPath></defs></svg>