<svg width="26" height="26" fill="none" xmlns="http://www.w3.org/2000/svg">
  <rect x="1" y="1" width="24" height="24" rx="8" stroke="#1565D8" stroke-width=".5" opacity=".2"/>
  <path fill-rule="evenodd" clip-rule="evenodd" d="M13.442 14.079c.348-.757.027-1.38-.86-1.767l-1.469-.606a1.398 1.398 0 00-1.42.21l-1.35 1.107-.04.394-.063 3.223v.56h1.635l3.333.947c.421.12.873.036 1.223-.227 2.196-1.651 3.664-2.766 3.886-2.973.54-.5.751-1.058.367-1.607-.31-.444-.833-.491-1.482-.198l-3.155 1.605-.887-.282c.114-.099.209-.227.282-.386z" fill="#1565D8"/>
  <path opacity=".3" fill-rule="evenodd" clip-rule="evenodd" d="M16.474 8.24H15.8V8.1a.42.42 0 10-.84 0v.14h-.132a.98.98 0 00-.98.981v.281c0 .542.438.981.98.981h1.112a.14.14 0 01.14.14v.28a.14.14 0 01-.14.14h-1.285a.42.42 0 00-.807.151l-.008.257a.42.42 0 00.42.433h.7v.136a.42.42 0 10.84 0v-.136h.14a.98.98 0 00.98-.98v-.28a.98.98 0 00-.98-.982h-1.112a.14.14 0 01-.14-.14v-.28a.14.14 0 01.14-.14h1.28a.42.42 0 00.786-.209v-.212a.42.42 0 00-.42-.42zM7.96 12.3h.14v5.32h-.14a.42.42 0 000 .84h.56a.42.42 0 00.42-.42v-6.16a.42.42 0 00-.42-.42h-.56a.42.42 0 000 .84z" fill="#1565D8"/>
</svg>
