<svg width="26" height="26" fill="none" xmlns="http://www.w3.org/2000/svg">
  <rect x="1" y="1" width="24" height="24" rx="8" stroke="#1565D8" stroke-width=".5" opacity=".2"/>
  <path fill-rule="evenodd" clip-rule="evenodd" d="M18.135 8.957l-5.04-1.82a.28.28 0 00-.19 0l-5.04 1.82a.28.28 0 00-.185.263V13c0 2.968 1.773 4.938 5.247 5.87a.28.28 0 00.147 0c3.474-.957 5.246-2.926 5.246-5.87V9.22a.28.28 0 00-.185-.263zm-7.068 3.553a.28.28 0 01.396.01l1.133 1.19 2.378-2.58a.28.28 0 01.412.38l-2.581 2.8a.28.28 0 01-.41.003l-1.338-1.407a.28.28 0 01.01-.396z" fill="#1565D8"/>
</svg>
