<svg width="25" height="26" fill="none" xmlns="http://www.w3.org/2000/svg">
  <rect x="1" y="1" width="23" height="24" rx="8" stroke="#1565D8" stroke-width=".5" opacity=".2"/>
  <path fill-rule="evenodd" clip-rule="evenodd" d="M9.646 11.496c.706-1.046 1.146-2.246 1.323-3.605a.333.333 0 01.225-.276c1.214-.392 1.905.231 1.893 1.652a13.86 13.86 0 01-.04.897c-.058.837-.053 1.066.037 1.22.086.147.366.198 1.03.067.21-.042.42-.089.652-.145.102-.025.842-.213 1.03-.256.361-.081.62-.116.848-.101.616.04.943.453 1 1.247.1 1.397-.208 4.203-.515 5.237-.314 1.056-.86 1.455-2.173 1.479-.844.015-2.141.015-3.9 0a3.013 3.013 0 01-1.216-.271c.101-.22.158-.465.158-.725V12.54a1.71 1.71 0 00-.352-1.044z" fill="#1565D8"/>
  <path opacity=".3" fill-rule="evenodd" clip-rule="evenodd" d="M7.724 11.532c-.538 0-.974.451-.974 1.008v5.376c0 .557.436 1.008.974 1.008h.65c.538 0 .975-.451.975-1.008V12.54c0-.557-.437-1.008-.975-1.008h-.65z" fill="#1565D8"/>
</svg>
